<svg width="20" height="21" viewBox="0 0 20 21" fill="none" xmlns="http://www.w3.org/2000/svg">
<path d="M16.3465 5.9L16.3582 5.88583L13.0248 3.18583L11.9748 4.48083L13.6973 5.87583C13.27 6.13549 12.9307 6.51771 12.7236 6.97278C12.5164 7.42785 12.4509 7.93472 12.5357 8.4275C12.6607 9.17667 13.1765 9.82417 13.844 10.1867C14.5898 10.5925 15.244 10.555 15.8257 10.3483L15.8132 15.5C15.8142 15.638 15.7808 15.774 15.716 15.8959C15.6511 16.0177 15.557 16.1214 15.442 16.1977C15.327 16.274 15.1948 16.3204 15.0574 16.3327C14.9199 16.3451 14.7816 16.3229 14.6548 16.2683C14.5556 16.2259 14.4656 16.1645 14.3898 16.0875C14.3128 16.0103 14.2517 15.9187 14.2101 15.8179C14.1685 15.7171 14.1472 15.6091 14.1473 15.5L14.1665 13.8333C14.1673 13.5053 14.1032 13.1804 13.9778 12.8773C13.8523 12.5742 13.6681 12.299 13.4357 12.0675C13.2035 11.8348 12.9278 11.6502 12.6242 11.5243C12.3206 11.3983 11.9952 11.3334 11.6665 11.3333H10.8332V4.66667C10.8332 4.22464 10.6576 3.80072 10.345 3.48816C10.0325 3.17559 9.60853 3 9.1665 3H3.33317C2.89114 3 2.46722 3.17559 2.15466 3.48816C1.8421 3.80072 1.6665 4.22464 1.6665 4.66667V16.3333C1.6665 16.7754 1.8421 17.1993 2.15466 17.5118C2.46722 17.8244 2.89114 18 3.33317 18H9.1665C9.60853 18 10.0325 17.8244 10.345 17.5118C10.6576 17.1993 10.8332 16.7754 10.8332 16.3333V13H11.6665C11.7798 13 11.889 13.0225 11.9923 13.065C12.1907 13.1518 12.3488 13.3105 12.4348 13.5092C12.4781 13.6118 12.5002 13.722 12.4998 13.8333L12.4798 15.5C12.4798 15.8383 12.5457 16.1658 12.6765 16.4733C12.8023 16.7725 12.9832 17.04 13.2107 17.2658C13.442 17.4996 13.7176 17.6849 14.0214 17.811C14.3251 17.9371 14.651 18.0013 14.9798 18C15.3182 18 15.6448 17.935 15.9532 17.8033C16.2515 17.6783 16.5198 17.4975 16.7457 17.2692C16.979 17.0375 17.164 16.7618 17.29 16.4581C17.416 16.1545 17.4805 15.8288 17.4798 15.5L17.4998 8C17.499 7.58135 17.393 7.16962 17.1914 6.80267C16.9899 6.43572 16.6993 6.12532 16.3465 5.9ZM4.99984 15.5L5.83317 11.3333H3.33317L7.49984 5.5L6.6665 9.66667H9.1665L4.99984 15.5ZM14.9998 8.83333C14.7788 8.83333 14.5669 8.74554 14.4106 8.58926C14.2543 8.43297 14.1665 8.22101 14.1665 8C14.1665 7.77899 14.2543 7.56702 14.4106 7.41074C14.5669 7.25446 14.7788 7.16667 14.9998 7.16667C15.2209 7.16667 15.4328 7.25446 15.5891 7.41074C15.7454 7.56702 15.8332 7.77899 15.8332 8C15.8332 8.22101 15.7454 8.43297 15.5891 8.58926C15.4328 8.74554 15.2209 8.83333 14.9998 8.83333Z" fill="#03CD70"/>
</svg>
