<svg width="36" height="39" viewBox="0 0 36 39" fill="none" xmlns="http://www.w3.org/2000/svg">
<path d="M10.4611 31.6141C10.4611 32.9945 9.22865 34.2023 7.8201 34.2023C6.41155 34.2023 5.17907 32.9945 5.17907 31.6141C5.17907 30.2337 6.41155 29.0259 7.8201 29.0259C9.22865 29.0259 10.4611 30.2337 10.4611 31.6141ZM28.9484 29.0259C27.5398 29.0259 26.3073 30.2337 26.3073 31.6141C26.3073 32.9945 27.5398 34.2023 28.9484 34.2023C30.3569 34.2023 31.5894 32.9945 31.5894 31.6141C31.5894 30.2337 30.3569 29.0259 28.9484 29.0259ZM28.9484 24.7122H28.4202C31.9415 21.9514 34.2304 17.4652 34.2304 12.6339C34.2304 7.80254 31.9415 3.3163 28.4202 0.555542H8.34831C4.82693 3.3163 2.53803 7.80254 2.53803 12.6339C2.53803 17.4652 4.82693 21.9514 8.34831 24.7122H7.8201C3.94658 24.7122 0.777344 27.8181 0.777344 31.6141C0.777344 35.4102 3.94658 38.516 7.8201 38.516H28.9484C32.8219 38.516 35.9911 35.4102 35.9911 31.6141C35.9911 27.8181 32.8219 24.7122 28.9484 24.7122ZM6.05941 12.6339C6.05941 9.35547 7.46796 6.24961 9.75686 4.00649H27.0116C29.3005 6.24961 30.7091 9.35547 30.7091 12.6339C30.7091 19.3632 25.2509 24.7122 18.3842 24.7122C11.5175 24.7122 6.05941 19.3632 6.05941 12.6339ZM28.9484 35.0651H7.8201C5.88334 35.0651 4.29872 33.5121 4.29872 31.6141C4.29872 29.7161 5.88334 28.1632 7.8201 28.1632H28.9484C30.8851 28.1632 32.4698 29.7161 32.4698 31.6141C32.4698 33.5121 30.8851 35.0651 28.9484 35.0651ZM19.9689 7.97509C19.9689 9.18292 21.0253 10.2182 22.2578 10.2182C23.4902 10.2182 24.5467 9.18292 24.5467 7.97509C24.5467 6.76725 23.4902 5.73197 22.0817 5.73197C20.8492 5.73197 19.9689 6.76725 19.9689 7.97509ZM12.3979 7.97509C12.3979 9.18292 13.4543 10.2182 14.6868 10.2182C15.9193 10.2182 16.9757 9.18292 16.9757 7.97509C16.9757 6.76725 15.9193 5.73197 14.6868 5.73197C13.2782 5.73197 12.3979 6.76725 12.3979 7.97509ZM10.8133 16.0848C12.574 16.0848 13.8064 14.7044 13.8064 13.1515C13.8064 11.5986 12.3979 10.2182 10.8133 10.2182C9.22865 10.2182 7.8201 11.426 7.8201 13.1515C7.8201 14.7044 9.22865 16.0848 10.8133 16.0848ZM17.68 19.0181C17.68 17.4652 16.2714 16.0848 14.6868 16.0848C12.9261 16.0848 11.6936 17.4652 11.6936 19.0181C11.6936 20.7436 13.1022 21.9514 14.6868 21.9514C16.2714 21.9514 17.68 20.7436 17.68 19.0181ZM18.3842 16.0848C20.1449 16.0848 21.3774 14.7044 21.3774 13.1515C21.3774 11.5986 19.9689 10.2182 18.3842 10.2182C16.7996 10.2182 15.3911 11.5986 15.3911 13.1515C15.3911 14.7044 16.7996 16.0848 18.3842 16.0848ZM25.2509 19.0181C25.2509 17.4652 23.8424 16.0848 22.2578 16.0848C20.4971 16.0848 19.2646 17.4652 19.2646 19.0181C19.2646 20.7436 20.6731 21.9514 22.2578 21.9514C23.8424 21.9514 25.2509 20.7436 25.2509 19.0181ZM28.9484 13.1515C28.9484 11.5986 27.5398 10.2182 25.9552 10.2182C24.1945 10.2182 22.962 11.5986 22.962 13.1515C22.962 14.877 24.3706 16.0848 25.9552 16.0848C27.5398 16.0848 28.9484 14.7044 28.9484 13.1515Z" fill="#55916E"/>
</svg>
